<?xml version="1.0" encoding="UTF-8"?><svg id="Camada_2" xmlns="http://www.w3.org/2000/svg" xmlns:xlink="http://www.w3.org/1999/xlink" viewBox="0 0 1337.15 286.01"><defs><style>.cls-1{fill:url(#Gradiente_sem_nome_7-3);}.cls-2{fill:#fff;}.cls-3{fill:url(#Gradiente_sem_nome_7-4);}.cls-4{fill:url(#Gradiente_sem_nome_7);}.cls-5{fill:url(#Gradiente_sem_nome_7-2);}</style><linearGradient id="Gradiente_sem_nome_7" x1="95.68" y1="38.78" x2="95.68" y2="245.44" gradientUnits="userSpaceOnUse"><stop offset="0" stop-color="#10c2e7"/><stop offset="1" stop-color="#0685e9"/></linearGradient><linearGradient id="Gradiente_sem_nome_7-2" x1="127.52" y1="38.78" x2="127.52" y2="245.44" xlink:href="#Gradiente_sem_nome_7"/><linearGradient id="Gradiente_sem_nome_7-3" x1="19.78" y1="38.78" x2="19.78" y2="245.44" xlink:href="#Gradiente_sem_nome_7"/><linearGradient id="Gradiente_sem_nome_7-4" x1="68.51" y1="38.78" x2="68.51" y2="245.44" xlink:href="#Gradiente_sem_nome_7"/></defs><g id="Camada_1-2"><g><rect class="cls-2" x="753.68" width="3.05" height="286.01"/><g><g><polygon class="cls-2" points="245.57 191.28 211.64 97.95 193.74 97.95 241.01 228.14 250.13 228.14 297.56 97.95 279.58 97.95 245.57 191.28"/><polygon class="cls-2" points="647.84 97.95 638.73 97.95 591.46 228.14 609.36 228.14 643.29 134.81 677.3 228.14 695.28 228.14 647.84 97.95"/><path class="cls-2" d="M421.89,115.77c-13.02-13.02-28.72-19.53-47.11-19.53s-34.09,6.51-47.11,19.53c-13.02,13.02-19.53,28.72-19.53,47.11s6.51,34.09,19.53,47.12c13.02,13.02,28.72,19.53,47.11,19.53s34.09-6.51,47.11-19.53c13.02-13.02,19.53-28.72,19.53-47.12s-6.51-34.09-19.53-47.11Zm-12,82.26c-9.68,9.71-21.39,14.57-35.11,14.57s-25.36-4.86-35.07-14.57c-9.71-9.7-14.56-21.43-14.56-35.15s4.84-25.43,14.52-35.11c9.68-9.68,21.39-14.52,35.11-14.52s25.43,4.84,35.11,14.52c9.68,9.68,14.52,21.39,14.52,35.11s-4.85,25.45-14.52,35.15Z"/><path class="cls-2" d="M557.45,164.02h16.84v46.3c-13.4,12.81-28.72,19.2-45.97,19.2-18.39,0-34.07-6.49-47.03-19.45-12.96-12.96-19.45-28.64-19.45-47.03s6.49-34.01,19.45-47.03c12.96-13.02,28.64-19.53,47.03-19.53,17.19,0,33.5,7.03,48.9,21.08l-12.61,11.47c-11.61-10.31-23.71-15.46-36.29-15.46-13.62,0-25.27,4.83-34.94,14.48-9.68,9.65-14.52,21.31-14.52,34.98s4.84,25.41,14.52,35.07c9.68,9.65,21.33,14.48,34.94,14.48,11.71,0,21.43-3.09,29.13-9.28v-39.3Z"/></g><g><polygon class="cls-4" points="116.61 82.17 134.76 82.17 75.02 229.52 56.6 229.52 116.61 82.17"/><polygon class="cls-5" points="153.94 55.13 172.08 55.13 101.37 229.52 82.95 229.52 153.94 55.13"/><g><polygon class="cls-1" points="39.56 161.89 18.15 109.2 0 109.2 30.42 184.34 39.56 161.89"/><polygon class="cls-3" points="61.28 153.5 39.59 206.98 48.72 229.52 97.43 109.2 79.29 109.2 61.28 153.5"/></g></g></g><path class="cls-2" d="M1100.71,168.22c0,13.43-4.46,18.43-16.46,18.43-11.36,0-17.12-5.54-17.12-16.46v-6.68c0-13.09,4.89-18.43,16.86-18.43s16.72,5.13,16.72,18.3v4.84Zm-16.72-27.67c-14.77,0-21.64,7.29-21.64,22.95v42.6h4.66v-21.87c3.37,4.38,9.65,6.95,17.25,6.95,14.7,0,21.25-7.08,21.25-22.95v-4.84c0-15.78-6.64-22.82-21.51-22.82m63.47,36.05c0,7.32-3.79,10.05-13.97,10.05h-1.96c-9.89,0-14.11-3.2-14.11-10.7v-.79c0-8.14,3.98-11.62,13.32-11.62h.79c11.17,0,15.94,3.36,15.94,11.23v1.83Zm-16.59-35.26h-12.63l-1.04,4.53h13.67c12.41,0,16.59,3.33,16.59,13.19v4.77c-3.1-3.1-8.58-4.68-16.33-4.68-12.36,0-18.37,5.24-18.37,16.01v.79c0,10.1,5.96,15.23,17.71,15.23h3.14c12.28,0,18.5-5.12,18.5-15.23v-16.89c0-12.58-6.16-17.71-21.25-17.71m34.48,26.88v-4.19c0-13.41,4.58-18.17,17.51-18.17h10.92l1.04-4.53h-11.96c-15.42,0-22.3,7-22.3,22.69v4.19c0,15.69,6.88,22.69,22.3,22.69h11.05l1.04-4.53h-12.1c-12.6,0-17.51-5.09-17.51-18.17m105.34,3.27c0,11.67-3.65,15.41-15.02,15.41s-14.76-3.89-14.76-15.41v-30.16h-4.79v30.16c0,14.35,5.48,19.94,19.55,19.94s19.68-5.78,19.68-19.94v-30.16h-4.66v30.16Zm-43.12-25.63l1.04-4.53h-20.83v-12.94l-4.79,.85v44.34c0,12.63,4.73,17.32,17.45,17.32h6.88l.87-4.53h-7.75c-9.59,0-12.67-3.05-12.67-12.54v-27.99h19.79Zm104.93,45.31h4.66V122.61h-4.66v68.56Zm-305.06-22.82c0,10.15-3.56,13.28-13.82,13.28-11.55,0-13.82-3.99-13.82-15.76v-1.83c0-11.66,2.05-15.87,13.82-15.87s13.82,4.1,13.82,15.98v4.21Zm-13.82-32.06c-19.76,0-28.82,8.31-28.82,27.31v2.91c0,18.03,7.88,26.77,26.45,26.77,5.94,0,11.87-1.08,16.08-4.43v2.16c0,10.15-4.43,13.49-14.79,13.49h-6.2c-3.55,.06-5.16,.69-7.3,4.19h-.01c-17.8,28.16-48.7,45.37-82.38,45.37-53.73,0-97.45-43.71-97.45-97.45s43.71-97.45,97.45-97.45c37.74,0,72.08,21.86,88.14,55.87h4.48c-16.37-36.42-52.66-59.93-92.62-59.93-55.97,0-101.51,45.54-101.51,101.51s45.54,101.51,101.51,101.51c32.92,0,63.29-15.78,82.23-41.97h14.52c19.11,0,28.93-7.23,28.93-25.69v-27.85c0-18.35-9.39-26.34-28.71-26.34m-110,11.87c10.36,0,14.03,4.1,14.03,16.3v4.53c0,11.87-3.67,15.98-14.25,15.98s-14.25-4.1-14.25-16.08v-6.15c0-10.9,3.67-14.57,14.47-14.57m-29.36-32.28v53c0,19.65,9.07,27.85,28.82,27.85s29.58-7.99,29.58-27.74v-5.07c0-18.57-8.42-27.63-26.77-27.63-5.83,0-12.2,1.19-16.52,4.53v-27.31l-15.11,2.37Zm103.09,34.33l2.48-12.09h-21.37v-16.52l-15.01,2.27v49.33c0,17.06,6.69,22.13,24.94,22.13h7.99l2.48-11.98h-9.39c-8.31,0-11.01-2.05-11.01-11.12v-22.02h18.89Zm340.88,26.38c0,7.23-3.95,10.05-14.11,10.05h-1.96c-9.79,0-13.97-3.2-13.97-10.7v-.79c0-8.14,3.98-11.62,13.32-11.62h.79c11.17,0,15.94,3.36,15.94,11.23v1.83Zm-16.73-35.26h-12.62l-1.04,4.53h13.67c12.51,0,16.73,3.33,16.73,13.19v4.77c-3.1-3.1-8.58-4.68-16.33-4.68-12.36,0-18.37,5.24-18.37,16.01v.79c0,10.1,5.92,15.23,17.58,15.23h3.14c12.36,0,18.63-5.12,18.63-15.23v-16.89c0-12.58-6.2-17.71-21.38-17.71"/></g></g></svg>